<?xml version="1.0" encoding="UTF-8" standalone="no"?>
<!-- Generator: Adobe Illustrator 22.1.0, SVG Export Plug-In . SVG Version: 6.00 Build 0)  -->

<svg
   version="1.2"
   id="g-eagle-Zeichenfl_che_1-img"
   x="0px"
   y="0px"
   viewBox="0 0 535 989"
   xml:space="preserve"
   sodipodi:docname="eagle_simplified.svg"
   inkscape:version="1.4.3 (0d15f75, 2025-12-25)"
   xmlns:inkscape="http://www.inkscape.org/namespaces/inkscape"
   xmlns:sodipodi="http://sodipodi.sourceforge.net/DTD/sodipodi-0.dtd"
   xmlns="http://www.w3.org/2000/svg"
   xmlns:svg="http://www.w3.org/2000/svg"><defs
   id="defs127" /><sodipodi:namedview
   id="namedview127"
   pagecolor="#ffffff"
   bordercolor="#000000"
   borderopacity="0.25"
   inkscape:showpageshadow="2"
   inkscape:pageopacity="0.0"
   inkscape:pagecheckerboard="0"
   inkscape:deskcolor="#d1d1d1"
   inkscape:zoom="2.2868772"
   inkscape:cx="293.63186"
   inkscape:cy="448.20947"
   inkscape:window-width="1920"
   inkscape:window-height="1051"
   inkscape:window-x="-9"
   inkscape:window-y="-9"
   inkscape:window-maximized="1"
   inkscape:current-layer="g112"
   showgrid="false" />
<g
   id="g127"
   transform="translate(13.824927,8.2949561)">
	<g
   id="g117">
		<g
   id="g113">
			<g
   id="g112">
				<g
   id="g13">
					
						<rect
   x="374.185"
   y="509.974"
   transform="matrix(0.5969,-0.8023,0.8023,0.5969,-244.8895,538.0395)"
   fill="#e9edf0"
   stroke="#1d1d1b"
   stroke-width="0.862"
   stroke-miterlimit="10"
   width="77.629997"
   height="5.5079999"
   id="rect1" />
					
						<rect
   x="397.79599"
   y="527.65002"
   transform="matrix(0.5582,-0.8297,0.8297,0.5582,-266.6311,566.6722)"
   fill="#e9edf0"
   stroke="#1d1d1b"
   stroke-width="0.862"
   stroke-miterlimit="10"
   width="2.027"
   height="12.123"
   id="rect2" />
					
						<rect
   x="467.435"
   y="560.84497"
   transform="matrix(0.2725,-0.9622,0.9622,0.2725,-204.3522,863.1865)"
   fill="#e9edf0"
   stroke="#1d1d1b"
   stroke-width="0.862"
   stroke-miterlimit="10"
   width="2.348"
   height="11.753"
   id="rect3" />
					
						<rect
   x="428.245"
   y="550.01398"
   transform="matrix(0.2725,-0.9622,0.9622,0.2725,-222.4415,817.6016)"
   fill="#e9edf0"
   stroke="#1d1d1b"
   stroke-width="0.862"
   stroke-miterlimit="10"
   width="2.348"
   height="11.753"
   id="rect4" />
					
						<rect
   x="428.24399"
   y="549.435"
   transform="matrix(0.2724,-0.9622,0.9622,0.2724,-221.8651,817.2308)"
   fill="#e9edf0"
   stroke="#1d1d1b"
   stroke-width="0.862"
   stroke-miterlimit="10"
   width="2.348"
   height="11.753"
   id="rect5" />
					<path
   fill="#1d1d1b"
   stroke="#1d1d1b"
   stroke-width="0.862"
   stroke-miterlimit="10"
   d="m 389.143,529.79 c 0,1.889 1.532,3.42 3.421,3.42 1.885,0 3.416,-1.531 3.416,-3.42 0,-1.887 -1.53,-3.419 -3.416,-3.419 -1.889,0 -3.421,1.532 -3.421,3.419 z"
   id="path5" />
					<polygon
   fill="#e9edf0"
   stroke="#1d1d1b"
   stroke-width="0.862"
   stroke-miterlimit="10"
   points="435.488,477.067 393.783,463.859 392.564,467.658 434.262,480.866 "
   id="polygon5" />
					<g
   id="g9">
						<polygon
   fill="#e9edf0"
   stroke="#1d1d1b"
   stroke-width="0.862"
   stroke-miterlimit="10"
   points="442.858,495.716 488.96,610.373 492.302,609.016 446.207,494.371 "
   id="polygon6" />
						
							<rect
   x="458.08899"
   y="491.888"
   transform="matrix(0.9279,-0.3727,0.3727,0.9279,-166.4321,210.3726)"
   fill="#e9edf0"
   stroke="#1d1d1b"
   stroke-width="0.862"
   stroke-miterlimit="10"
   width="5.507"
   height="87.440002"
   id="rect6" />
						<g
   id="g8">
							<path
   fill="#e9edf0"
   stroke="#1d1d1b"
   stroke-width="0.862"
   stroke-miterlimit="10"
   d="m 466.046,609.203 0.007,1.054 c 0.567,0.522 1.193,1.048 1.856,1.55 5.993,4.55 15.273,7.446 25.67,7.391 10.39,-0.055 19.641,-3.052 25.583,-7.665 0.659,-0.492 1.267,-1.02 1.827,-1.55 l -0.007,-1.072 z"
   id="path6" />
							<g
   id="g7">
								
							</g>
						</g>
						<polyline
   fill="#e9edf0"
   stroke="#1d1d1b"
   stroke-width="0.862"
   stroke-miterlimit="10"
   points="439.914,484.278         441.979,496.074 447.086,494.018 440.394,483.792       "
   id="polyline8" />
					</g>
					<path
   fill="#1d1d1b"
   stroke="#1d1d1b"
   stroke-width="0.862"
   stroke-miterlimit="10"
   d="m 435.393,481.589 c 0,1.655 1.344,2.997 2.998,2.997 1.655,0 2.998,-1.343 2.998,-2.997 0,-1.656 -1.344,-2.998 -2.998,-2.998 -1.654,0 -2.998,1.342 -2.998,2.998 z"
   id="path9" />
					
						<rect
   x="406.689"
   y="543.44501"
   transform="matrix(0.0166,-0.9999,0.9999,0.0166,-152.0916,954.3292)"
   fill="#e9edf0"
   stroke="#1d1d1b"
   stroke-width="0.862"
   stroke-miterlimit="10"
   width="4.8179998"
   height="22.075001"
   id="rect9" />
					
						<rect
   x="409.91501"
   y="532.64398"
   transform="matrix(0.5581,-0.8298,0.8298,0.5581,-268.3256,582.0976)"
   fill="#e9edf0"
   stroke="#1d1d1b"
   stroke-width="0.862"
   stroke-miterlimit="10"
   width="4.8169999"
   height="20.629999"
   id="rect10" />
					<path
   fill="#1d1d1b"
   stroke="#1d1d1b"
   stroke-width="0.862"
   stroke-miterlimit="10"
   d="m 392.564,554.505 c 0,1.889 1.53,3.421 3.419,3.421 1.885,0 3.419,-1.532 3.419,-3.421 0,-1.887 -1.534,-3.418 -3.419,-3.418 -1.889,0 -3.419,1.531 -3.419,3.418 z"
   id="path10" />
					
						<rect
   x="445.41199"
   y="545"
   transform="matrix(0.2725,-0.9622,0.9622,0.2725,-213.6855,838.8639)"
   fill="#e9edf0"
   stroke="#1d1d1b"
   stroke-width="0.862"
   stroke-miterlimit="10"
   width="4.875"
   height="31.459"
   id="rect11" />
					
						<rect
   x="419.267"
   y="547.70697"
   fill="#e9edf0"
   stroke="#1d1d1b"
   stroke-width="0.862"
   stroke-miterlimit="10"
   width="5.9489999"
   height="10.219"
   id="rect12" />
					
						<rect
   x="419.267"
   y="547.70697"
   fill="#e9edf0"
   stroke="#1d1d1b"
   stroke-width="0.862"
   stroke-miterlimit="10"
   width="5.9489999"
   height="10.219"
   id="rect13" />
				</g>
				<g
   id="g25">
					
						<rect
   x="144.11099"
   y="473.914"
   transform="matrix(0.8023,-0.5969,0.5969,0.8023,-277.0201,189.029)"
   fill="#e9edf0"
   stroke="#1d1d1b"
   stroke-width="0.862"
   stroke-miterlimit="10"
   width="5.5079999"
   height="77.628998"
   id="rect14" />
					
						<rect
   x="154.994"
   y="532.69897"
   transform="matrix(0.8297,-0.5582,0.5582,0.8297,-270.4725,180.7662)"
   fill="#e9edf0"
   stroke="#1d1d1b"
   stroke-width="0.862"
   stroke-miterlimit="10"
   width="12.124"
   height="2.026"
   id="rect15" />
					
						<rect
   x="85.379997"
   y="565.54797"
   transform="matrix(0.9622,-0.2725,0.2725,0.9622,-150.9613,46.3064)"
   fill="#e9edf0"
   stroke="#1d1d1b"
   stroke-width="0.862"
   stroke-miterlimit="10"
   width="11.752"
   height="2.348"
   id="rect16" />
					
						<rect
   x="124.569"
   y="554.716"
   transform="matrix(0.9622,-0.2725,0.2725,0.9622,-146.5273,56.5746)"
   fill="#e9edf0"
   stroke="#1d1d1b"
   stroke-width="0.862"
   stroke-miterlimit="10"
   width="11.753"
   height="2.348"
   id="rect17" />
					
						<rect
   x="124.569"
   y="554.138"
   transform="matrix(0.9622,-0.2724,0.2724,0.9622,-146.3315,56.5315)"
   fill="#e9edf0"
   stroke="#1d1d1b"
   stroke-width="0.862"
   stroke-miterlimit="10"
   width="11.753"
   height="2.348"
   id="rect18" />
					<path
   fill="#1d1d1b"
   stroke="#1d1d1b"
   stroke-width="0.862"
   stroke-miterlimit="10"
   d="m 170.723,529.79 c 0,1.889 -1.532,3.42 -3.421,3.42 -1.887,0 -3.417,-1.531 -3.417,-3.42 0,-1.887 1.53,-3.419 3.417,-3.419 1.889,0 3.421,1.532 3.421,3.419 z"
   id="path18" />
					<polygon
   fill="#e9edf0"
   stroke="#1d1d1b"
   stroke-width="0.862"
   stroke-miterlimit="10"
   points="124.379,477.067 166.085,463.859 167.302,467.658 125.604,480.866 "
   id="polygon18" />
					<g
   id="g22">
						<polygon
   fill="#e9edf0"
   stroke="#1d1d1b"
   stroke-width="0.862"
   stroke-miterlimit="10"
   points="117.006,495.716 70.904,610.373 67.564,609.016 113.66,494.371 "
   id="polygon19" />
						
							<rect
   x="55.304001"
   y="532.854"
   transform="matrix(0.3727,-0.9279,0.9279,0.3727,-434.8964,427.8521)"
   fill="#e9edf0"
   stroke="#1d1d1b"
   stroke-width="0.862"
   stroke-miterlimit="10"
   width="87.438004"
   height="5.507"
   id="rect19" />
						<g
   id="g21">
							<path
   fill="#e9edf0"
   stroke="#1d1d1b"
   stroke-width="0.862"
   stroke-miterlimit="10"
   d="m 93.82,609.203 -0.005,1.054 c -0.568,0.522 -1.195,1.048 -1.86,1.55 -5.991,4.55 -15.272,7.446 -25.667,7.391 -10.393,-0.055 -19.644,-3.052 -25.582,-7.665 -0.663,-0.492 -1.267,-1.02 -1.829,-1.55 l 0.007,-1.072 z"
   id="path19" />
							<g
   id="g20">
								
									
							</g>
						</g>
						<polyline
   fill="#e9edf0"
   stroke="#1d1d1b"
   stroke-width="0.862"
   stroke-miterlimit="10"
   points="119.95,484.278         117.885,496.074 112.778,494.018 119.47,483.792       "
   id="polyline21" />
					</g>
					<path
   fill="#1d1d1b"
   stroke="#1d1d1b"
   stroke-width="0.862"
   stroke-miterlimit="10"
   d="m 124.471,481.589 c 0,1.655 -1.342,2.997 -2.996,2.997 -1.657,0 -2.996,-1.343 -2.996,-2.997 0,-1.656 1.34,-2.998 2.996,-2.998 1.654,0 2.996,1.342 2.996,2.998 z"
   id="path22" />
					
						<rect
   x="139.729"
   y="552.073"
   transform="matrix(0.9999,-0.0166,0.0166,0.9999,-9.1743,2.5764)"
   fill="#e9edf0"
   stroke="#1d1d1b"
   stroke-width="0.862"
   stroke-miterlimit="10"
   width="22.075001"
   height="4.8179998"
   id="rect22" />
					
						<rect
   x="137.229"
   y="540.54999"
   transform="matrix(0.8297,-0.5581,0.5581,0.8297,-277.9318,174.7943)"
   fill="#e9edf0"
   stroke="#1d1d1b"
   stroke-width="0.862"
   stroke-miterlimit="10"
   width="20.627001"
   height="4.8169999"
   id="rect23" />
					<path
   fill="#1d1d1b"
   stroke="#1d1d1b"
   stroke-width="0.862"
   stroke-miterlimit="10"
   d="m 167.302,554.505 c 0,1.889 -1.532,3.421 -3.421,3.421 -1.885,0 -3.416,-1.532 -3.416,-3.421 0,-1.887 1.53,-3.418 3.416,-3.418 1.889,0 3.421,1.531 3.421,3.418 z"
   id="path23" />
					
						<rect
   x="96.289001"
   y="558.29199"
   transform="matrix(0.9622,-0.2725,0.2725,0.9622,-148.5523,51.7411)"
   fill="#e9edf0"
   stroke="#1d1d1b"
   stroke-width="0.862"
   stroke-miterlimit="10"
   width="31.455"
   height="4.875"
   id="rect24" />
					
						<rect
   x="134.65199"
   y="547.70697"
   fill="#e9edf0"
   stroke="#1d1d1b"
   stroke-width="0.862"
   stroke-miterlimit="10"
   width="5.9450002"
   height="10.219"
   id="rect25" />
				</g>
				
					<rect
   x="333.19101"
   y="304.51999"
   fill="#e9edf0"
   stroke="#1d1d1b"
   stroke-width="0.862"
   stroke-miterlimit="10"
   width="29.954"
   height="3.381"
   id="rect26" />
				
				<rect
   x="206.765"
   y="449.82401"
   fill="#91989c"
   stroke="#1d1d1b"
   stroke-miterlimit="10"
   width="7.8309999"
   height="17.299"
   id="rect27" />
				<rect
   x="341.34"
   y="449.82401"
   fill="#91989c"
   stroke="#1d1d1b"
   stroke-miterlimit="10"
   width="7.829"
   height="17.299"
   id="rect28" />
				
					<rect
   x="342.047"
   y="309.86801"
   transform="matrix(0.6928,-0.7211,0.7211,0.6928,-114.9983,353.1503)"
   fill="#e9edf0"
   stroke="#1d1d1b"
   stroke-width="0.862"
   stroke-miterlimit="10"
   width="29.952"
   height="3.3800001"
   id="rect29" />
				
					<rect
   x="197.423"
   y="296.58301"
   transform="matrix(0.6928,-0.7211,0.7211,0.6928,-163.5032,239.2805)"
   fill="#e9edf0"
   stroke="#1d1d1b"
   stroke-width="0.862"
   stroke-miterlimit="10"
   width="3.382"
   height="29.952"
   id="rect30" />
				
					<rect
   x="185.202"
   y="304.51999"
   fill="#e9edf0"
   stroke="#1d1d1b"
   stroke-width="0.862"
   stroke-miterlimit="10"
   width="37.407001"
   height="4.9330001"
   id="rect31" />
				<polygon
   fill="#e9edf0"
   stroke="#1d1d1b"
   stroke-width="0.862"
   stroke-linejoin="round"
   stroke-miterlimit="10"
   points="222.609,304.542 335.404,304.542 350.906,320.145 360.044,352.484 360.044,382.628 383.957,382.628 411.586,402.095 411.586,436.008 396.514,449.824 378.932,454.18 336.856,454.18 309.175,447.65 248.055,446.502 243.564,454.28 194.925,454.28 198.79,448.084 182.368,420.937 196.181,385.793 199.948,385.793 198.066,351.858 206.765,320.145 "
   id="polygon31" />
				
					<rect
   x="254.58501"
   y="309.453"
   fill="#e9edf0"
   stroke="#1d1d1b"
   stroke-width="0.862"
   stroke-miterlimit="10"
   width="48.784"
   height="16.434999"
   id="rect32" />
				<path
   fill="#e9edf0"
   stroke="#1d1d1b"
   stroke-width="1.5"
   stroke-miterlimit="10"
   d="m 210.265,385.793 c 0,-37.824 30.664,-68.486 68.485,-68.486 37.828,0 68.489,30.661 68.489,68.486 0,37.825 -30.66,68.487 -68.489,68.487 -37.822,0 -68.485,-30.662 -68.485,-68.487 z"
   id="path32" />
				<path
   fill="#91989c"
   stroke="#1d1d1b"
   stroke-miterlimit="10"
   d="m 347.245,385.793 h -136.99 c 0,-13.954 4.179,-26.94 11.351,-37.757 H 335.9 c 7.172,10.817 11.345,23.804 11.345,37.757 z"
   id="path33" />
				<polygon
   fill="#e9edf0"
   stroke="#1d1d1b"
   stroke-width="0.862"
   stroke-miterlimit="10"
   points="250.288,422.354 258.816,325.888 260.277,309.449 297.241,309.449 298.703,325.888 307.231,422.354 "
   id="polygon33" />
				<path
   fill="#1d1d1b"
   stroke="#1d1d1b"
   stroke-miterlimit="10"
   d="m 312.719,594.6 c 0,1.779 -0.035,3.541 -0.141,5.269 h -67.656 c -0.106,-1.728 -0.141,-3.49 -0.141,-5.269 0,-34.039 15.204,-61.65 33.968,-61.65 18.766,0 33.97,27.61 33.97,61.65 z"
   id="path34" />
				
					<rect
   x="167.302"
   y="492.42999"
   fill="#e9edf0"
   stroke="#1d1d1b"
   stroke-width="0.862"
   stroke-miterlimit="10"
   width="223.724"
   height="62.077"
   id="rect34" />
				<rect
   x="167.302"
   y="461.39099"
   fill="#91989c"
   stroke="#1d1d1b"
   stroke-miterlimit="10"
   width="223.724"
   height="62.077"
   id="rect35" />
				
					<rect
   x="241.285"
   y="461.39099"
   fill="#e9edf0"
   stroke="#1d1d1b"
   stroke-width="0.862"
   stroke-miterlimit="10"
   width="74.003998"
   height="93.922997"
   id="rect36" />
				
					<rect
   x="186.95599"
   y="554.50702"
   fill="#91989c"
   stroke="#1d1d1b"
   stroke-width="0.862"
   stroke-miterlimit="10"
   width="184.79201"
   height="9.9849997"
   id="rect37" />
				<rect
   x="319.23901"
   y="271.04401"
   fill="#e9edf0"
   stroke="#1d1d1b"
   stroke-miterlimit="10"
   width="2.3210001"
   height="33.476002"
   id="rect38" />
				<rect
   x="317.44199"
   y="272.258"
   fill="#e9edf0"
   stroke="#1d1d1b"
   stroke-miterlimit="10"
   width="5.9689999"
   height="8.684"
   id="rect39" />
				
				
					<line
   fill="none"
   stroke="#1d1d1b"
   stroke-linejoin="round"
   stroke-miterlimit="10"
   x1="222.60899"
   y1="348.03799"
   x2="254.58501"
   y2="373.21201"
   id="line40" />
				<polygon
   fill="#1d1d1b"
   stroke="#1d1d1b"
   stroke-linejoin="round"
   stroke-miterlimit="10"
   points="257.879,336.458 254.585,373.663 222.397,347.429 "
   id="polygon40" />
				<polygon
   fill="#1d1d1b"
   stroke="#1d1d1b"
   stroke-linejoin="round"
   stroke-miterlimit="10"
   points="299.921,336.458 303.212,373.663 335.404,347.429 "
   id="polygon41" />
				
					<line
   fill="none"
   stroke="#1d1d1b"
   stroke-linejoin="round"
   stroke-miterlimit="10"
   x1="336.46799"
   y1="347.39099"
   x2="303.36899"
   y2="373.21201"
   id="line41" />
				
				<rect
   x="258.62201"
   y="293.71399"
   fill="#91989c"
   stroke="#1d1d1b"
   stroke-miterlimit="10"
   width="40.668999"
   height="8.5349998"
   id="rect44" />
				<rect
   x="182.368"
   y="309.453"
   fill="#1d1d1b"
   stroke="#1d1d1b"
   stroke-miterlimit="10"
   width="4.2940001"
   height="11.417"
   id="rect45" />
				<rect
   x="179.07001"
   y="315.16101"
   fill="#1d1d1b"
   stroke="#1d1d1b"
   stroke-miterlimit="10"
   width="12.262"
   height="8.4060001"
   id="rect46" />
				
					<rect
   x="276.30399"
   y="578.138"
   fill="#e9edf0"
   stroke="#1d1d1b"
   stroke-width="0.862"
   stroke-miterlimit="10"
   width="4.9039998"
   height="36.606998"
   id="rect47" />
				<g
   id="g47">
					<path
   fill="#e9edf0"
   stroke="#1d1d1b"
   stroke-width="0.862"
   stroke-miterlimit="10"
   d="m 301.961,446.285 c 0,2.758 -2.112,4.995 -4.717,4.995 h -38.123 c -2.605,0 -4.717,-2.237 -4.717,-4.995 l 4.717,-53.407 c 0,-2.758 2.114,-4.994 4.713,-4.994 h 28.694 c 2.603,0 4.715,2.237 4.715,4.994 z"
   id="path47" />
				</g>
				<g
   id="g48">
					<path
   fill="#91989c"
   stroke="#1d1d1b"
   stroke-miterlimit="10"
   d="m 304.731,445.821 c 0,3.017 -2.308,5.458 -5.155,5.458 h -41.652 c -2.846,0 -5.156,-2.441 -5.156,-5.458 l 5.156,-58.353 c 0,-3.013 2.308,-5.458 5.151,-5.458 h 31.35 c 2.843,0 5.151,2.446 5.151,5.458 z"
   id="path48" />
				</g>
				<path
   fill="#91989c"
   stroke="#1d1d1b"
   stroke-miterlimit="10"
   d="m 296.443,442.427 c 0,2.758 -2.237,4.994 -4.994,4.994 h -26.532 c -2.757,0 -4.994,-2.237 -4.994,-4.994 v -34.459 c 0,-2.759 2.237,-4.995 4.994,-4.995 h 26.532 c 2.757,0 4.994,2.237 4.994,4.995 z"
   id="path49" />
				
					<rect
   x="266.72"
   y="402.97198"
   fill="#e9edf0"
   stroke="#1d1d1b"
   stroke-width="0.862"
   stroke-miterlimit="10"
   width="22.924999"
   height="44.449001"
   id="rect49" />
				<rect
   x="266.57001"
   y="416.64499"
   fill="#91989c"
   stroke="#1d1d1b"
   stroke-miterlimit="10"
   width="22.924999"
   height="30.775999"
   id="rect50" />
				<g
   id="g54">
					<g
   id="g52">
						
							<rect
   x="304.439"
   y="446.89001"
   transform="matrix(0.7158,-0.6983,0.6983,0.7158,-231.4435,343.6748)"
   fill="#e9edf0"
   stroke="#1d1d1b"
   stroke-width="0.862"
   stroke-miterlimit="10"
   width="4.1440001"
   height="18.59"
   id="rect51" />
						
							<rect
   x="273.52802"
   y="470.76599"
   transform="matrix(0.8312,-0.556,0.556,0.8312,-213.0818,243.911)"
   fill="#e9edf0"
   stroke="#1d1d1b"
   stroke-width="0.862"
   stroke-miterlimit="10"
   width="43.161999"
   height="4.1440001"
   id="rect52" />
					</g>
					<g
   id="g53">
						
							<rect
   x="239.964"
   y="454.112"
   transform="matrix(0.6982,-0.7159,0.7159,0.6982,-251.3498,316.0942)"
   fill="#e9edf0"
   stroke="#1d1d1b"
   stroke-width="0.862"
   stroke-miterlimit="10"
   width="18.589001"
   height="4.145"
   id="rect53" />
						<polygon
   fill="#e9edf0"
   stroke="#1d1d1b"
   stroke-width="0.862"
   stroke-miterlimit="10"
   points="277.446,486.559 279.756,483.118 243.876,459.115 241.575,462.562 "
   id="polygon53" />
					</g>
				</g>
				<g
   id="g58">
					<polygon
   fill="#e9edf0"
   stroke="#1d1d1b"
   stroke-width="0.862"
   stroke-linejoin="round"
   stroke-miterlimit="10"
   points="196.267,405.743 196.267,384.704 209.723,387.762 211.268,403.21 "
   id="polygon54" />
					
					
					
					<polygon
   fill="#e9edf0"
   stroke="#1d1d1b"
   stroke-width="0.862"
   stroke-linejoin="round"
   stroke-miterlimit="10"
   points="196.267,405.743 196.267,384.704 184.384,391.133 184.384,401.651 "
   id="polygon58" />
					
				</g>
				
				<g
   id="g65">
					<g
   id="g64">
						
							<rect
   x="253.85001"
   y="454.05099"
   fill="#e9edf0"
   stroke="#1d1d1b"
   stroke-width="0.862"
   stroke-miterlimit="10"
   width="51.388"
   height="19.617001"
   id="rect59" />
						
					</g>
					
						<rect
   x="250.27901"
   y="422.35599"
   fill="#e9edf0"
   stroke="#1d1d1b"
   stroke-width="0.862"
   stroke-miterlimit="10"
   width="3.5710001"
   height="51.457001"
   id="rect64" />
					
						<rect
   x="303.651"
   y="422.35599"
   fill="#e9edf0"
   stroke="#1d1d1b"
   stroke-width="0.862"
   stroke-miterlimit="10"
   width="3.573"
   height="51.457001"
   id="rect65" />
				</g>
				<polygon
   fill="#91989c"
   stroke="#1d1d1b"
   stroke-linejoin="round"
   stroke-miterlimit="10"
   points="212.772,454.28 194.925,454.28 211.268,428.082 "
   id="polygon65" />
				<polygon
   fill="#91989c"
   stroke="#1d1d1b"
   stroke-linejoin="round"
   stroke-miterlimit="10"
   points="211.268,428.082 198.79,448.084 181.583,419.58 203.788,418.538 "
   id="polygon66" />
				<polygon
   fill="#91989c"
   stroke="#1d1d1b"
   stroke-linejoin="round"
   stroke-miterlimit="10"
   points="378.932,454.18 396.514,449.824 396.335,428.082 "
   id="polygon67" />
				<polygon
   fill="none"
   stroke="#1d1d1b"
   stroke-linejoin="round"
   stroke-miterlimit="10"
   points="396.514,410.462 396.335,428.082 411.586,436.008 411.586,400.849 "
   id="polygon68" />
				<polygon
   fill="none"
   stroke="#1d1d1b"
   stroke-linejoin="round"
   stroke-miterlimit="10"
   points="411.586,400.849 396.514,410.462 374.08,397.171 383.351,382.279 "
   id="polygon69" />
				<rect
   x="315.74301"
   y="523.46899"
   fill="#91989c"
   stroke="#1d1d1b"
   stroke-miterlimit="10"
   width="12.489"
   height="30.917999"
   id="rect69" />
				<polygon
   fill="#91989c"
   stroke="#1d1d1b"
   stroke-linejoin="round"
   stroke-miterlimit="10"
   points="411.586,436.008 396.514,449.824 396.335,428.082 "
   id="polygon70" />
				<polygon
   fill="#e9edf0"
   stroke="#1d1d1b"
   stroke-width="0.862"
   stroke-linejoin="round"
   stroke-miterlimit="10"
   points="206.765,351.858 198.066,351.858 206.765,320.145 "
   id="polygon71" />
				<polygon
   fill="#e9edf0"
   stroke="#1d1d1b"
   stroke-width="0.862"
   stroke-linejoin="round"
   stroke-miterlimit="10"
   points="198.066,351.858 206.765,351.858 206.765,385.793 "
   id="polygon72" />
				<polygon
   fill="#e9edf0"
   stroke="#1d1d1b"
   stroke-width="0.862"
   stroke-linejoin="round"
   stroke-miterlimit="10"
   points="350.906,351.858 359.606,351.858 350.906,320.145 "
   id="polygon73" />
				<polygon
   fill="#e9edf0"
   stroke="#1d1d1b"
   stroke-width="0.862"
   stroke-linejoin="round"
   stroke-miterlimit="10"
   points="359.606,351.858 350.906,351.858 350.906,385.793 "
   id="polygon74" />
				<g
   id="g79">
					<polygon
   fill="#e9edf0"
   stroke="#1d1d1b"
   stroke-width="0.862"
   stroke-linejoin="round"
   stroke-miterlimit="10"
   points="361.578,404.939 361.578,383.901 347.75,387.042 346.579,402.406 "
   id="polygon75" />
					
					
					
					<polygon
   fill="#e9edf0"
   stroke="#1d1d1b"
   stroke-width="0.862"
   stroke-linejoin="round"
   stroke-miterlimit="10"
   points="361.578,404.939 361.578,383.901 373.461,390.329 373.461,400.848 "
   id="polygon79" />
					
				</g>
				
					<rect
   x="360.784"
   y="298.60199"
   transform="matrix(0.689,-0.7248,0.7248,0.689,-105.2387,359.2475)"
   fill="#91989c"
   stroke="#1d1d1b"
   stroke-miterlimit="10"
   width="10.384"
   height="7.2919998"
   id="rect79" />
				
					
				<polygon
   fill="#e9edf0"
   stroke="#1d1d1b"
   stroke-width="0.862"
   stroke-miterlimit="10"
   points="258.816,325.888 260.277,309.449 297.241,309.449 298.703,325.888 "
   id="polygon80" />
				<rect
   x="261.69299"
   y="302.24799"
   fill="#91989c"
   stroke="#1d1d1b"
   stroke-miterlimit="10"
   width="5.2389998"
   height="11.307"
   id="rect80" />
				<rect
   x="290.453"
   y="302.24799"
   fill="#91989c"
   stroke="#1d1d1b"
   stroke-miterlimit="10"
   width="5.5240002"
   height="11.307"
   id="rect81" />
				
				
				<g
   id="g87">
					
						<circle
   transform="matrix(0.7071,-0.7071,0.7071,0.7071,-115.6269,279.5942)"
   fill="#e9edf0"
   stroke="#1d1d1b"
   stroke-width="0.862"
   stroke-miterlimit="10"
   cx="279.68701"
   cy="279.371"
   id="ellipse83"
   r="18.754999" />
					<g
   id="g86">
						
						
							
						
							
						<path
   fill="#1d1d1b"
   stroke="#1d1d1b"
   stroke-width="0.862"
   stroke-miterlimit="10"
   d="m 275.682,279.372 c 0,-2.212 1.792,-4.007 4.005,-4.007 2.211,0 4.005,1.795 4.005,4.007 0,2.211 -1.794,4.004 -4.005,4.004 -2.213,0 -4.005,-1.793 -4.005,-4.004 z"
   id="path84" />
						<circle
   fill="#e9edf0"
   stroke="#1d1d1b"
   stroke-width="0.862"
   stroke-miterlimit="10"
   cx="185.202"
   cy="287.78101"
   r="18.754999"
   id="circle84" />
						
						<path
   fill="#1d1d1b"
   stroke="#1d1d1b"
   stroke-width="0.862"
   stroke-miterlimit="10"
   d="m 181.197,287.783 c 0,-2.213 1.794,-4.008 4.005,-4.008 2.215,0 4.007,1.795 4.007,4.008 0,2.211 -1.792,4.004 -4.007,4.004 -2.211,0 -4.005,-1.793 -4.005,-4.004 z"
   id="path86" />
					</g>
				</g>
				<polygon
   fill="#e9edf0"
   stroke="#1d1d1b"
   stroke-width="0.862"
   stroke-linejoin="round"
   stroke-miterlimit="10"
   points="201.581,320.87 198.066,351.858 206.765,320.145 "
   id="polygon87" />
				<polygon
   fill="#e9edf0"
   stroke="#1d1d1b"
   stroke-width="0.862"
   stroke-linejoin="round"
   stroke-miterlimit="10"
   points="356.094,320.87 359.606,351.858 350.906,320.145 "
   id="polygon88" />
				<g
   id="g89">
					<path
   fill="#e9edf0"
   stroke="#1d1d1b"
   stroke-width="0.862"
   stroke-miterlimit="10"
   d="m 306.228,609.203 -0.007,1.054 c -0.567,0.522 -1.193,1.048 -1.856,1.55 -5.997,4.55 -15.273,7.446 -25.671,7.391 -10.391,-0.055 -19.641,-3.052 -25.586,-7.665 -0.659,-0.492 -1.263,-1.02 -1.823,-1.55 l 0.004,-1.072 z"
   id="path88" />
					<g
   id="g88">
						
							
					</g>
				</g>
				<path
   fill="#1d1d1b"
   stroke="#1d1d1b"
   stroke-width="0.862"
   stroke-miterlimit="10"
   d="m 240.969,532.192 v 6.837 c -1.885,0 -3.418,-1.533 -3.418,-3.417 0,-1.887 1.532,-3.42 3.418,-3.42 z"
   id="path89" />
				<path
   fill="#1d1d1b"
   stroke="#1d1d1b"
   stroke-width="0.862"
   stroke-miterlimit="10"
   d="m 254.558,554.763 h 6.839 c 0,1.886 -1.536,3.419 -3.417,3.419 -1.888,0 -3.422,-1.533 -3.422,-3.419 z"
   id="path90" />
				<path
   fill="#1d1d1b"
   stroke="#1d1d1b"
   stroke-width="0.862"
   stroke-miterlimit="10"
   d="m 295.579,554.763 h 6.839 c 0,1.886 -1.536,3.419 -3.419,3.419 -1.886,0 -3.42,-1.533 -3.42,-3.419 z"
   id="path91" />
				<path
   fill="#1d1d1b"
   stroke="#1d1d1b"
   stroke-width="0.862"
   stroke-miterlimit="10"
   d="m 315.743,539.029 v -6.837 c 1.887,0 3.423,1.533 3.423,3.418 0,1.885 -1.536,3.419 -3.423,3.419 z"
   id="path92" />
				
					<rect
   x="310"
   y="547.26599"
   transform="matrix(0.2168,-0.9762,0.9762,0.2168,-301.4698,741.681)"
   fill="#e9edf0"
   stroke="#1d1d1b"
   stroke-width="0.862"
   stroke-miterlimit="10"
   width="2.973"
   height="22.906"
   id="rect92" />
				<polygon
   fill="#e9edf0"
   stroke="#1d1d1b"
   stroke-width="0.862"
   stroke-miterlimit="10"
   points="257.979,557.663 235.624,562.672 234.981,559.768 257.333,554.761 "
   id="polygon92" />
				<g
   id="g111">
					<g
   id="g99">
						<g
   id="g95">
							<polygon
   fill="#e9edf0"
   stroke="#1d1d1b"
   stroke-width="0.862"
   stroke-miterlimit="10"
   points="278.153,487.087 280.974,485.498 314.132,541.483 311.308,543.075 "
   id="polygon93" />
							
								<rect
   x="310.75699"
   y="541.48297"
   fill="#e9edf0"
   stroke="#1d1d1b"
   stroke-width="0.862"
   stroke-miterlimit="10"
   width="3.925"
   height="12.903"
   id="rect93" />
							
								<rect
   x="319.71701"
   y="535.37402"
   transform="matrix(0.9463,-0.3234,0.3234,0.9463,-160.3949,133.4743)"
   fill="#e9edf0"
   stroke="#1d1d1b"
   stroke-width="0.862"
   stroke-linejoin="round"
   stroke-miterlimit="10"
   width="3.3889999"
   height="27.948"
   id="rect94" />
							
								<rect
   x="280.77701"
   y="563.65997"
   transform="matrix(0.9844,-0.1761,0.1761,0.9844,-94.7948,62.219)"
   fill="#e9edf0"
   stroke="#1d1d1b"
   stroke-width="0.862"
   stroke-miterlimit="10"
   width="44.958"
   height="3.3870001"
   id="rect95" />
						</g>
						<g
   id="g98">
							<polygon
   fill="#e9edf0"
   stroke="#1d1d1b"
   stroke-width="0.862"
   stroke-miterlimit="10"
   points="279.35,487.087 276.527,485.498 241.836,541.919 244.663,543.51 "
   id="polygon95" />
							
								<rect
   x="241.285"
   y="541.48297"
   fill="#e9edf0"
   stroke="#1d1d1b"
   stroke-width="0.862"
   stroke-miterlimit="10"
   width="3.9230001"
   height="12.903"
   id="rect96" />
							
								<rect
   x="221.687"
   y="547.83301"
   transform="matrix(0.2864,-0.9581,0.9581,0.2864,-358.3427,617.9106)"
   fill="#e9edf0"
   stroke="#1d1d1b"
   stroke-width="0.862"
   stroke-linejoin="round"
   stroke-miterlimit="10"
   width="27.947001"
   height="3.388"
   id="rect97" />
							
								<rect
   x="252.55"
   y="542.87402"
   transform="matrix(0.1761,-0.9844,0.9844,0.1761,-347.0394,716.0954)"
   fill="#e9edf0"
   stroke="#1d1d1b"
   stroke-width="0.862"
   stroke-miterlimit="10"
   width="3.3870001"
   height="44.959"
   id="rect98" />
						</g>
					</g>
					
						<rect
   x="274.689"
   y="492.66901"
   fill="#e9edf0"
   stroke="#1d1d1b"
   stroke-width="0.862"
   stroke-miterlimit="10"
   width="8.1219997"
   height="85.744003"
   id="rect99" />
					
				</g><rect
   x="265.79959"
   y="490.34067"
   fill="#e9edf0"
   stroke="#1d1d1b"
   stroke-width="0.862"
   stroke-miterlimit="10"
   width="26"
   height="77.231003"
   id="rect100"
   style="vector-effect:non-scaling-stroke" />
				
					<rect
   x="230.034"
   y="554.39001"
   fill="#e9edf0"
   stroke="#1d1d1b"
   stroke-width="0.862"
   stroke-miterlimit="10"
   width="5.9450002"
   height="10.22"
   id="rect111" />
				
					<rect
   x="321.98901"
   y="554.15302"
   fill="#e9edf0"
   stroke="#1d1d1b"
   stroke-width="0.862"
   stroke-miterlimit="10"
   width="5.9489999"
   height="10.219"
   id="rect112" />
			</g>
			<path
   fill="#1d1d1b"
   stroke="#1d1d1b"
   stroke-width="0.862"
   stroke-miterlimit="10"
   d="m 275.29,484.586 c 0,1.655 1.344,2.996 2.998,2.996 1.655,0 2.997,-1.342 2.997,-2.996 0,-1.656 -1.342,-2.997 -2.997,-2.997 -1.655,0 -2.998,1.341 -2.998,2.997 z"
   id="path112" />
		</g>
		
		
		
	</g>
	
	
	
	
</g>
<style
   type="text/css"
   id="style127">
#g-eagle-Zeichenfl_che_1-img rect, #g-eagle-Zeichenfl_che_1-img circle, #g-eagle-Zeichenfl_che_1-img path, #g-eagle-Zeichenfl_che_1-img line, #g-eagle-Zeichenfl_che_1-img polyline { vector-effect: non-scaling-stroke; }
</style>
</svg>
