<?xml version="1.0" encoding="utf-8"?>
<!-- Generator: Adobe Illustrator 22.1.0, SVG Export Plug-In . SVG Version: 6.00 Build 0)  -->
<svg version="1.2" baseProfile="tiny" id="g-eagle-Zeichenfl_che_1-img" xmlns="http://www.w3.org/2000/svg" xmlns:xlink="http://www.w3.org/1999/xlink"
	 x="0px" y="0px" viewBox="0 0 535 989" xml:space="preserve">
<g>
	<g>
		<g>
			<g>
				<g>
					
						<rect x="374.185" y="509.974" transform="matrix(0.5969 -0.8023 0.8023 0.5969 -244.8895 538.0395)" fill="#E9EDF0" stroke="#1D1D1B" stroke-width="0.862" stroke-miterlimit="10" width="77.63" height="5.508"/>
					
						<rect x="397.796" y="527.65" transform="matrix(0.5582 -0.8297 0.8297 0.5582 -266.6311 566.6722)" fill="#E9EDF0" stroke="#1D1D1B" stroke-width="0.862" stroke-miterlimit="10" width="2.027" height="12.123"/>
					
						<rect x="467.435" y="560.845" transform="matrix(0.2725 -0.9622 0.9622 0.2725 -204.3522 863.1865)" fill="#E9EDF0" stroke="#1D1D1B" stroke-width="0.862" stroke-miterlimit="10" width="2.348" height="11.753"/>
					
						<rect x="428.245" y="550.014" transform="matrix(0.2725 -0.9622 0.9622 0.2725 -222.4415 817.6016)" fill="#E9EDF0" stroke="#1D1D1B" stroke-width="0.862" stroke-miterlimit="10" width="2.348" height="11.753"/>
					
						<rect x="428.244" y="549.435" transform="matrix(0.2724 -0.9622 0.9622 0.2724 -221.8651 817.2308)" fill="#E9EDF0" stroke="#1D1D1B" stroke-width="0.862" stroke-miterlimit="10" width="2.348" height="11.753"/>
					<path fill="#1D1D1B" stroke="#1D1D1B" stroke-width="0.862" stroke-miterlimit="10" d="M389.143,529.79
						c0,1.889,1.532,3.42,3.421,3.42c1.885,0,3.416-1.531,3.416-3.42c0-1.887-1.53-3.419-3.416-3.419
						C390.675,526.371,389.143,527.903,389.143,529.79z"/>
					<polygon fill="#E9EDF0" stroke="#1D1D1B" stroke-width="0.862" stroke-miterlimit="10" points="434.262,480.866 
						435.488,477.067 393.783,463.859 392.564,467.658 					"/>
					<g>
						<polygon fill="#E9EDF0" stroke="#1D1D1B" stroke-width="0.862" stroke-miterlimit="10" points="446.207,494.371 
							442.858,495.716 488.96,610.373 492.302,609.016 						"/>
						
							<rect x="458.089" y="491.888" transform="matrix(0.9279 -0.3727 0.3727 0.9279 -166.4321 210.3726)" fill="#E9EDF0" stroke="#1D1D1B" stroke-width="0.862" stroke-miterlimit="10" width="5.507" height="87.44"/>
						<g>
							<path fill="#E9EDF0" stroke="#1D1D1B" stroke-width="0.862" stroke-miterlimit="10" d="M466.046,609.203l0.007,1.054
								c0.567,0.522,1.193,1.048,1.856,1.55c5.993,4.55,15.273,7.446,25.67,7.391c10.39-0.055,19.641-3.052,25.583-7.665
								c0.659-0.492,1.267-1.02,1.827-1.55l-0.007-1.072L466.046,609.203z"/>
							<g>
								<polygon fill="#E9EDF0" stroke="#1D1D1B" stroke-width="0.862" stroke-miterlimit="10" points="466.046,609.203 
									466.057,611.818 521,611.526 520.982,608.912 								"/>
							</g>
						</g>
						<polyline fill="#E9EDF0" stroke="#1D1D1B" stroke-width="0.862" stroke-miterlimit="10" points="439.914,484.278 
							441.979,496.074 447.086,494.018 440.394,483.792 						"/>
					</g>
					<path fill="#1D1D1B" stroke="#1D1D1B" stroke-width="0.862" stroke-miterlimit="10" d="M435.393,481.589
						c0,1.655,1.344,2.997,2.998,2.997c1.655,0,2.998-1.343,2.998-2.997c0-1.656-1.344-2.998-2.998-2.998
						C436.737,478.591,435.393,479.933,435.393,481.589z"/>
					
						<rect x="406.689" y="543.445" transform="matrix(0.0166 -0.9999 0.9999 0.0166 -152.0916 954.3292)" fill="#E9EDF0" stroke="#1D1D1B" stroke-width="0.862" stroke-miterlimit="10" width="4.818" height="22.075"/>
					
						<rect x="409.915" y="532.644" transform="matrix(0.5581 -0.8298 0.8298 0.5581 -268.3256 582.0976)" fill="#E9EDF0" stroke="#1D1D1B" stroke-width="0.862" stroke-miterlimit="10" width="4.817" height="20.63"/>
					<path fill="#1D1D1B" stroke="#1D1D1B" stroke-width="0.862" stroke-miterlimit="10" d="M392.564,554.505
						c0,1.889,1.53,3.421,3.419,3.421c1.885,0,3.419-1.532,3.419-3.421c0-1.887-1.534-3.418-3.419-3.418
						C394.094,551.087,392.564,552.618,392.564,554.505z"/>
					
						<rect x="445.412" y="545" transform="matrix(0.2725 -0.9622 0.9622 0.2725 -213.6855 838.8639)" fill="#E9EDF0" stroke="#1D1D1B" stroke-width="0.862" stroke-miterlimit="10" width="4.875" height="31.459"/>
					
						<rect x="419.267" y="547.707" fill="#E9EDF0" stroke="#1D1D1B" stroke-width="0.862" stroke-miterlimit="10" width="5.949" height="10.219"/>
					
						<rect x="419.267" y="547.707" fill="#E9EDF0" stroke="#1D1D1B" stroke-width="0.862" stroke-miterlimit="10" width="5.949" height="10.219"/>
				</g>
				<g>
					
						<rect x="144.111" y="473.914" transform="matrix(0.8023 -0.5969 0.5969 0.8023 -277.0201 189.029)" fill="#E9EDF0" stroke="#1D1D1B" stroke-width="0.862" stroke-miterlimit="10" width="5.508" height="77.629"/>
					
						<rect x="154.994" y="532.699" transform="matrix(0.8297 -0.5582 0.5582 0.8297 -270.4725 180.7662)" fill="#E9EDF0" stroke="#1D1D1B" stroke-width="0.862" stroke-miterlimit="10" width="12.124" height="2.026"/>
					
						<rect x="85.38" y="565.548" transform="matrix(0.9622 -0.2725 0.2725 0.9622 -150.9613 46.3064)" fill="#E9EDF0" stroke="#1D1D1B" stroke-width="0.862" stroke-miterlimit="10" width="11.752" height="2.348"/>
					
						<rect x="124.569" y="554.716" transform="matrix(0.9622 -0.2725 0.2725 0.9622 -146.5273 56.5746)" fill="#E9EDF0" stroke="#1D1D1B" stroke-width="0.862" stroke-miterlimit="10" width="11.753" height="2.348"/>
					
						<rect x="124.569" y="554.138" transform="matrix(0.9622 -0.2724 0.2724 0.9622 -146.3315 56.5315)" fill="#E9EDF0" stroke="#1D1D1B" stroke-width="0.862" stroke-miterlimit="10" width="11.753" height="2.348"/>
					<path fill="#1D1D1B" stroke="#1D1D1B" stroke-width="0.862" stroke-miterlimit="10" d="M170.723,529.79
						c0,1.889-1.532,3.42-3.421,3.42c-1.887,0-3.417-1.531-3.417-3.42c0-1.887,1.53-3.419,3.417-3.419
						C169.191,526.371,170.723,527.903,170.723,529.79z"/>
					<polygon fill="#E9EDF0" stroke="#1D1D1B" stroke-width="0.862" stroke-miterlimit="10" points="125.604,480.866 
						124.379,477.067 166.085,463.859 167.302,467.658 					"/>
					<g>
						<polygon fill="#E9EDF0" stroke="#1D1D1B" stroke-width="0.862" stroke-miterlimit="10" points="113.66,494.371 
							117.006,495.716 70.904,610.373 67.564,609.016 						"/>
						
							<rect x="55.304" y="532.854" transform="matrix(0.3727 -0.9279 0.9279 0.3727 -434.8964 427.8521)" fill="#E9EDF0" stroke="#1D1D1B" stroke-width="0.862" stroke-miterlimit="10" width="87.438" height="5.507"/>
						<g>
							<path fill="#E9EDF0" stroke="#1D1D1B" stroke-width="0.862" stroke-miterlimit="10" d="M93.82,609.203l-0.005,1.054
								c-0.568,0.522-1.195,1.048-1.86,1.55c-5.991,4.55-15.272,7.446-25.667,7.391c-10.393-0.055-19.644-3.052-25.582-7.665
								c-0.663-0.492-1.267-1.02-1.829-1.55l0.007-1.072L93.82,609.203z"/>
							<g>
								
									<rect x="65.037" y="582.895" transform="matrix(0.0049 -1 1 0.0049 -544.3362 673.7331)" fill="#E9EDF0" stroke="#1D1D1B" stroke-width="0.862" stroke-miterlimit="10" width="2.614" height="54.938"/>
							</g>
						</g>
						<polyline fill="#E9EDF0" stroke="#1D1D1B" stroke-width="0.862" stroke-miterlimit="10" points="119.95,484.278 
							117.885,496.074 112.778,494.018 119.47,483.792 						"/>
					</g>
					<path fill="#1D1D1B" stroke="#1D1D1B" stroke-width="0.862" stroke-miterlimit="10" d="M124.471,481.589
						c0,1.655-1.342,2.997-2.996,2.997c-1.657,0-2.996-1.343-2.996-2.997c0-1.656,1.34-2.998,2.996-2.998
						C123.129,478.591,124.471,479.933,124.471,481.589z"/>
					
						<rect x="139.729" y="552.073" transform="matrix(0.9999 -0.0166 0.0166 0.9999 -9.1743 2.5764)" fill="#E9EDF0" stroke="#1D1D1B" stroke-width="0.862" stroke-miterlimit="10" width="22.075" height="4.818"/>
					
						<rect x="137.229" y="540.55" transform="matrix(0.8297 -0.5581 0.5581 0.8297 -277.9318 174.7943)" fill="#E9EDF0" stroke="#1D1D1B" stroke-width="0.862" stroke-miterlimit="10" width="20.627" height="4.817"/>
					<path fill="#1D1D1B" stroke="#1D1D1B" stroke-width="0.862" stroke-miterlimit="10" d="M167.302,554.505
						c0,1.889-1.532,3.421-3.421,3.421c-1.885,0-3.416-1.532-3.416-3.421c0-1.887,1.53-3.418,3.416-3.418
						C165.77,551.087,167.302,552.618,167.302,554.505z"/>
					
						<rect x="96.289" y="558.292" transform="matrix(0.9622 -0.2725 0.2725 0.9622 -148.5523 51.7411)" fill="#E9EDF0" stroke="#1D1D1B" stroke-width="0.862" stroke-miterlimit="10" width="31.455" height="4.875"/>
					
						<rect x="134.652" y="547.707" fill="#E9EDF0" stroke="#1D1D1B" stroke-width="0.862" stroke-miterlimit="10" width="5.945" height="10.219"/>
				</g>
				
					<rect x="333.191" y="304.52" fill="#E9EDF0" stroke="#1D1D1B" stroke-width="0.862" stroke-miterlimit="10" width="29.954" height="3.381"/>
				<polyline fill="none" stroke="#1D1D1B" stroke-width="1.8" stroke-miterlimit="10" points="358.499,297.981 346.458,297.981 
					346.458,323.529 				"/>
				<rect x="206.765" y="449.824" fill="#91989C" stroke="#1D1D1B" stroke-miterlimit="10" width="7.831" height="17.299"/>
				<rect x="341.34" y="449.824" fill="#91989C" stroke="#1D1D1B" stroke-miterlimit="10" width="7.829" height="17.299"/>
				
					<rect x="342.047" y="309.868" transform="matrix(0.6928 -0.7211 0.7211 0.6928 -114.9983 353.1503)" fill="#E9EDF0" stroke="#1D1D1B" stroke-width="0.862" stroke-miterlimit="10" width="29.952" height="3.38"/>
				
					<rect x="197.423" y="296.583" transform="matrix(0.6928 -0.7211 0.7211 0.6928 -163.5032 239.2805)" fill="#E9EDF0" stroke="#1D1D1B" stroke-width="0.862" stroke-miterlimit="10" width="3.382" height="29.952"/>
				
					<rect x="185.202" y="304.52" fill="#E9EDF0" stroke="#1D1D1B" stroke-width="0.862" stroke-miterlimit="10" width="37.407" height="4.933"/>
				<polygon fill="#E9EDF0" stroke="#1D1D1B" stroke-width="0.862" stroke-linejoin="round" stroke-miterlimit="10" points="
					206.765,320.145 222.609,304.542 335.404,304.542 350.906,320.145 360.044,352.484 360.044,382.628 383.957,382.628 
					411.586,402.095 411.586,436.008 396.514,449.824 378.932,454.18 336.856,454.18 309.175,447.65 248.055,446.502 
					243.564,454.28 194.925,454.28 198.79,448.084 182.368,420.937 196.181,385.793 199.948,385.793 198.066,351.858 				"/>
				
					<rect x="254.585" y="309.453" fill="#E9EDF0" stroke="#1D1D1B" stroke-width="0.862" stroke-miterlimit="10" width="48.784" height="16.435"/>
				<path fill="#E9EDF0" stroke="#1D1D1B" stroke-width="1.5" stroke-miterlimit="10" d="M210.265,385.793
					c0-37.824,30.664-68.486,68.485-68.486c37.828,0,68.489,30.661,68.489,68.486c0,37.825-30.66,68.487-68.489,68.487
					C240.928,454.28,210.265,423.618,210.265,385.793z"/>
				<path fill="#91989C" stroke="#1D1D1B" stroke-miterlimit="10" d="M347.245,385.793h-136.99c0-13.954,4.179-26.94,11.351-37.757
					H335.9C343.072,358.853,347.245,371.84,347.245,385.793z"/>
				<polygon fill="#E9EDF0" stroke="#1D1D1B" stroke-width="0.862" stroke-miterlimit="10" points="307.231,422.354 
					250.288,422.354 258.816,325.888 260.277,309.449 297.241,309.449 298.703,325.888 				"/>
				<path fill="#1D1D1B" stroke="#1D1D1B" stroke-miterlimit="10" d="M312.719,594.6c0,1.779-0.035,3.541-0.141,5.269h-67.656
					c-0.106-1.728-0.141-3.49-0.141-5.269c0-34.039,15.204-61.65,33.968-61.65C297.515,532.95,312.719,560.56,312.719,594.6z"/>
				
					<rect x="167.302" y="492.43" fill="#E9EDF0" stroke="#1D1D1B" stroke-width="0.862" stroke-miterlimit="10" width="223.724" height="62.077"/>
				<rect x="167.302" y="461.391" fill="#91989C" stroke="#1D1D1B" stroke-miterlimit="10" width="223.724" height="62.077"/>
				
					<rect x="241.285" y="461.391" fill="#E9EDF0" stroke="#1D1D1B" stroke-width="0.862" stroke-miterlimit="10" width="74.004" height="93.923"/>
				
					<rect x="186.956" y="554.507" fill="#91989C" stroke="#1D1D1B" stroke-width="0.862" stroke-miterlimit="10" width="184.792" height="9.985"/>
				<rect x="319.239" y="271.044" fill="#E9EDF0" stroke="#1D1D1B" stroke-miterlimit="10" width="2.321" height="33.476"/>
				<rect x="317.442" y="272.258" fill="#E9EDF0" stroke="#1D1D1B" stroke-miterlimit="10" width="5.969" height="8.684"/>
				<rect x="319.239" y="264.388" fill="#E9EDF0" stroke="#1D1D1B" stroke-miterlimit="10" width="1.186" height="7.87"/>
				
					<line fill="none" stroke="#1D1D1B" stroke-linejoin="round" stroke-miterlimit="10" x1="222.609" y1="348.038" x2="254.585" y2="373.212"/>
				<polygon fill="#1D1D1B" stroke="#1D1D1B" stroke-linejoin="round" stroke-miterlimit="10" points="222.397,347.429 
					257.879,336.458 254.585,373.663 				"/>
				<polygon fill="#1D1D1B" stroke="#1D1D1B" stroke-linejoin="round" stroke-miterlimit="10" points="335.404,347.429 
					299.921,336.458 303.212,373.663 				"/>
				
					<line fill="none" stroke="#1D1D1B" stroke-linejoin="round" stroke-miterlimit="10" x1="336.468" y1="347.391" x2="303.369" y2="373.212"/>
				<g>
					<path fill="none" stroke="#1D1D1B" stroke-width="2" stroke-miterlimit="10" d="M273.829,368.493
						c0-2.483,2.01-4.495,4.496-4.495c2.48,0,4.492,2.012,4.492,4.495s-2.012,4.496-4.492,4.496
						C275.839,372.988,273.829,370.976,273.829,368.493z"/>
					<path fill="#1D1D1B" d="M291.704,375.728c0-2.034,1.649-3.684,3.681-3.684c2.039,0,3.687,1.65,3.687,3.684
						c0,2.035-1.647,3.685-3.687,3.685C293.353,379.412,291.704,377.762,291.704,375.728z"/>
					<path fill="#1D1D1B" d="M287.36,368.493c0-1.199,0.97-2.172,2.171-2.172c1.199,0,2.173,0.973,2.173,2.172
						c0,1.199-0.974,2.172-2.173,2.172C288.33,370.665,287.36,369.692,287.36,368.493z"/>
					<circle fill="#1D1D1B" cx="267.397" cy="368.493" r="2.171"/>
					<path fill="#1D1D1B" d="M285.846,336.1c0-2.034,1.653-3.684,3.685-3.684c2.035,0,3.683,1.65,3.683,3.684
						c0,2.034-1.647,3.684-3.683,3.684C287.499,339.784,285.846,338.134,285.846,336.1z"/>
				</g>
				<rect x="258.622" y="293.714" fill="#91989C" stroke="#1D1D1B" stroke-miterlimit="10" width="40.669" height="8.535"/>
				<rect x="182.368" y="309.453" fill="#1D1D1B" stroke="#1D1D1B" stroke-miterlimit="10" width="4.294" height="11.417"/>
				<rect x="179.07" y="315.161" fill="#1D1D1B" stroke="#1D1D1B" stroke-miterlimit="10" width="12.262" height="8.406"/>
				
					<rect x="276.304" y="578.138" fill="#E9EDF0" stroke="#1D1D1B" stroke-width="0.862" stroke-miterlimit="10" width="4.904" height="36.607"/>
				<g>
					<path fill="#E9EDF0" stroke="#1D1D1B" stroke-width="0.862" stroke-miterlimit="10" d="M301.961,446.285
						c0,2.758-2.112,4.995-4.717,4.995h-38.123c-2.605,0-4.717-2.237-4.717-4.995l4.717-53.407c0-2.758,2.114-4.994,4.713-4.994
						h28.694c2.603,0,4.715,2.237,4.715,4.994L301.961,446.285z"/>
				</g>
				<g>
					<path fill="#91989C" stroke="#1D1D1B" stroke-miterlimit="10" d="M304.731,445.821c0,3.017-2.308,5.458-5.155,5.458h-41.652
						c-2.846,0-5.156-2.441-5.156-5.458l5.156-58.353c0-3.013,2.308-5.458,5.151-5.458h31.35c2.843,0,5.151,2.446,5.151,5.458
						L304.731,445.821z"/>
				</g>
				<path fill="#91989C" stroke="#1D1D1B" stroke-miterlimit="10" d="M296.443,442.427c0,2.758-2.237,4.994-4.994,4.994h-26.532
					c-2.757,0-4.994-2.237-4.994-4.994v-34.459c0-2.759,2.237-4.995,4.994-4.995h26.532c2.757,0,4.994,2.237,4.994,4.995V442.427z"
					/>
				
					<rect x="266.72" y="402.972" fill="#E9EDF0" stroke="#1D1D1B" stroke-width="0.862" stroke-miterlimit="10" width="22.925" height="44.449"/>
				<rect x="266.57" y="416.645" fill="#91989C" stroke="#1D1D1B" stroke-miterlimit="10" width="22.925" height="30.776"/>
				<g>
					<g>
						
							<rect x="304.439" y="446.89" transform="matrix(0.7158 -0.6983 0.6983 0.7158 -231.4435 343.6748)" fill="#E9EDF0" stroke="#1D1D1B" stroke-width="0.862" stroke-miterlimit="10" width="4.144" height="18.59"/>
						
							<rect x="273.528" y="470.766" transform="matrix(0.8312 -0.556 0.556 0.8312 -213.0818 243.911)" fill="#E9EDF0" stroke="#1D1D1B" stroke-width="0.862" stroke-miterlimit="10" width="43.162" height="4.144"/>
					</g>
					<g>
						
							<rect x="239.964" y="454.112" transform="matrix(0.6982 -0.7159 0.7159 0.6982 -251.3498 316.0942)" fill="#E9EDF0" stroke="#1D1D1B" stroke-width="0.862" stroke-miterlimit="10" width="18.589" height="4.145"/>
						<polygon fill="#E9EDF0" stroke="#1D1D1B" stroke-width="0.862" stroke-miterlimit="10" points="241.575,462.562 
							277.446,486.559 279.756,483.118 243.876,459.115 						"/>
					</g>
				</g>
				<g>
					<polygon fill="#E9EDF0" stroke="#1D1D1B" stroke-width="0.862" stroke-linejoin="round" stroke-miterlimit="10" points="
						211.268,403.21 196.267,405.743 196.267,384.704 209.723,387.762 					"/>
					<g>
						
							<rect x="186.624" y="383.828" fill="#E9EDF0" stroke="#1D1D1B" stroke-width="0.862" stroke-linejoin="round" stroke-miterlimit="10" width="2.825" height="7.5"/>
						<polygon fill="#E9EDF0" stroke="#1D1D1B" stroke-width="0.862" stroke-linejoin="round" stroke-miterlimit="10" points="
							184.384,375.062 184.797,383.827 191.18,383.827 191.689,375.062 						"/>
					</g>
					<g>
						
							<rect x="186.624" y="400.849" fill="#E9EDF0" stroke="#1D1D1B" stroke-width="0.862" stroke-linejoin="round" stroke-miterlimit="10" width="2.825" height="7.5"/>
						<polygon fill="#E9EDF0" stroke="#1D1D1B" stroke-width="0.862" stroke-linejoin="round" stroke-miterlimit="10" points="
							191.689,417.116 191.277,408.351 184.894,408.351 184.384,417.116 						"/>
					</g>
					<g>
						
							<rect x="178.762" y="395.225" fill="#E9EDF0" stroke="#1D1D1B" stroke-width="0.862" stroke-linejoin="round" stroke-miterlimit="10" width="7.501" height="2.825"/>
						<polygon fill="#E9EDF0" stroke="#1D1D1B" stroke-width="0.862" stroke-linejoin="round" stroke-miterlimit="10" points="
							169.996,400.29 178.762,399.877 178.762,393.493 169.996,392.984 						"/>
					</g>
					<polygon fill="#E9EDF0" stroke="#1D1D1B" stroke-width="0.862" stroke-linejoin="round" stroke-miterlimit="10" points="
						184.384,401.651 196.267,405.743 196.267,384.704 184.384,391.133 					"/>
					<path fill="#1D1D1B" stroke="#1D1D1B" stroke-width="0.862" stroke-linejoin="round" stroke-miterlimit="10" d="
						M194.649,396.637c0-2.073-1.682-3.753-3.754-3.753c-2.072,0-3.75,1.679-3.75,3.753c0,2.074,1.679,3.753,3.75,3.753
						C192.967,400.389,194.649,398.711,194.649,396.637z"/>
				</g>
				<polygon fill="#E9EDF0" stroke="#1D1D1B" stroke-width="0.862" stroke-miterlimit="10" points="377.265,418.176 
					304.885,446.689 305.65,449.214 378.757,421.961 				"/>
				<g>
					<g>
						
							<rect x="253.85" y="454.051" fill="#E9EDF0" stroke="#1D1D1B" stroke-width="0.862" stroke-miterlimit="10" width="51.388" height="19.617"/>
						<g>
							
								<line fill="none" stroke="#1D1D1B" stroke-width="0.862" stroke-miterlimit="10" x1="253.85" y1="457.332" x2="305.238" y2="457.332"/>
							
								<line fill="none" stroke="#1D1D1B" stroke-width="0.862" stroke-miterlimit="10" x1="253.85" y1="460.597" x2="305.238" y2="460.597"/>
							
								<line fill="none" stroke="#1D1D1B" stroke-width="0.862" stroke-miterlimit="10" x1="253.85" y1="463.859" x2="305.238" y2="463.859"/>
							
								<line fill="none" stroke="#1D1D1B" stroke-width="0.862" stroke-miterlimit="10" x1="253.85" y1="467.123" x2="305.238" y2="467.123"/>
							
								<line fill="none" stroke="#1D1D1B" stroke-width="0.862" stroke-miterlimit="10" x1="253.85" y1="470.385" x2="305.238" y2="470.385"/>
						</g>
					</g>
					
						<rect x="250.279" y="422.356" fill="#E9EDF0" stroke="#1D1D1B" stroke-width="0.862" stroke-miterlimit="10" width="3.571" height="51.457"/>
					
						<rect x="303.651" y="422.356" fill="#E9EDF0" stroke="#1D1D1B" stroke-width="0.862" stroke-miterlimit="10" width="3.573" height="51.457"/>
				</g>
				<polygon fill="#91989C" stroke="#1D1D1B" stroke-linejoin="round" stroke-miterlimit="10" points="211.268,428.082 
					212.772,454.28 194.925,454.28 				"/>
				<polygon fill="#91989C" stroke="#1D1D1B" stroke-linejoin="round" stroke-miterlimit="10" points="203.788,418.538 
					211.268,428.082 198.79,448.084 181.583,419.58 				"/>
				<polygon fill="#91989C" stroke="#1D1D1B" stroke-linejoin="round" stroke-miterlimit="10" points="396.335,428.082 
					378.932,454.18 396.514,449.824 				"/>
				<polygon fill="none" stroke="#1D1D1B" stroke-linejoin="round" stroke-miterlimit="10" points="411.586,400.849 
					396.514,410.462 396.335,428.082 411.586,436.008 				"/>
				<polygon fill="none" stroke="#1D1D1B" stroke-linejoin="round" stroke-miterlimit="10" points="383.351,382.279 
					411.586,400.849 396.514,410.462 374.08,397.171 				"/>
				<rect x="315.743" y="523.469" fill="#91989C" stroke="#1D1D1B" stroke-miterlimit="10" width="12.489" height="30.918"/>
				<polygon fill="#91989C" stroke="#1D1D1B" stroke-linejoin="round" stroke-miterlimit="10" points="396.335,428.082 
					411.586,436.008 396.514,449.824 				"/>
				<polygon fill="#E9EDF0" stroke="#1D1D1B" stroke-width="0.862" stroke-linejoin="round" stroke-miterlimit="10" points="
					206.765,320.145 206.765,351.858 198.066,351.858 				"/>
				<polygon fill="#E9EDF0" stroke="#1D1D1B" stroke-width="0.862" stroke-linejoin="round" stroke-miterlimit="10" points="
					206.765,385.793 198.066,351.858 206.765,351.858 				"/>
				<polygon fill="#E9EDF0" stroke="#1D1D1B" stroke-width="0.862" stroke-linejoin="round" stroke-miterlimit="10" points="
					350.906,320.145 350.906,351.858 359.606,351.858 				"/>
				<polygon fill="#E9EDF0" stroke="#1D1D1B" stroke-width="0.862" stroke-linejoin="round" stroke-miterlimit="10" points="
					350.906,385.793 359.606,351.858 350.906,351.858 				"/>
				<g>
					<polygon fill="#E9EDF0" stroke="#1D1D1B" stroke-width="0.862" stroke-linejoin="round" stroke-miterlimit="10" points="
						346.579,402.406 361.578,404.939 361.578,383.901 347.75,387.042 					"/>
					<g>
						
							<rect x="368.394" y="383.026" fill="#E9EDF0" stroke="#1D1D1B" stroke-width="0.862" stroke-linejoin="round" stroke-miterlimit="10" width="2.826" height="7.499"/>
						<polygon fill="#E9EDF0" stroke="#1D1D1B" stroke-width="0.862" stroke-linejoin="round" stroke-miterlimit="10" points="
							373.461,374.259 373.047,383.024 366.665,383.024 366.154,374.259 						"/>
					</g>
					<g>
						
							<rect x="368.394" y="400.045" fill="#E9EDF0" stroke="#1D1D1B" stroke-width="0.862" stroke-linejoin="round" stroke-miterlimit="10" width="2.826" height="7.5"/>
						<polygon fill="#E9EDF0" stroke="#1D1D1B" stroke-width="0.862" stroke-linejoin="round" stroke-miterlimit="10" points="
							366.154,416.313 366.568,407.547 372.952,407.547 373.461,416.313 						"/>
					</g>
					<g>
						
							<rect x="371.587" y="394.421" fill="#E9EDF0" stroke="#1D1D1B" stroke-width="0.862" stroke-linejoin="round" stroke-miterlimit="10" width="7.498" height="2.825"/>
						<polygon fill="#E9EDF0" stroke="#1D1D1B" stroke-width="0.862" stroke-linejoin="round" stroke-miterlimit="10" points="
							387.852,399.486 379.088,399.073 379.088,392.689 387.852,392.181 						"/>
					</g>
					<polygon fill="#E9EDF0" stroke="#1D1D1B" stroke-width="0.862" stroke-linejoin="round" stroke-miterlimit="10" points="
						373.461,400.848 361.578,404.939 361.578,383.901 373.461,390.329 					"/>
					<path fill="#1D1D1B" stroke="#1D1D1B" stroke-width="0.862" stroke-linejoin="round" stroke-miterlimit="10" d="M363.2,395.833
						c0-2.073,1.679-3.753,3.751-3.753c2.07,0,3.754,1.679,3.754,3.753c0,2.074-1.684,3.753-3.754,3.753
						C364.878,399.587,363.2,397.907,363.2,395.833z"/>
				</g>
				
					<rect x="360.784" y="298.602" transform="matrix(0.689 -0.7248 0.7248 0.689 -105.2387 359.2475)" fill="#91989C" stroke="#1D1D1B" stroke-miterlimit="10" width="10.384" height="7.292"/>
				
					<line fill="none" stroke="#1D1D1B" stroke-width="2" stroke-miterlimit="10" x1="363.502" y1="292.556" x2="375.196" y2="303.486"/>
				<polygon fill="#E9EDF0" stroke="#1D1D1B" stroke-width="0.862" stroke-miterlimit="10" points="298.703,325.888 
					258.816,325.888 260.277,309.449 297.241,309.449 				"/>
				<rect x="261.693" y="302.248" fill="#91989C" stroke="#1D1D1B" stroke-miterlimit="10" width="5.239" height="11.307"/>
				<rect x="290.453" y="302.248" fill="#91989C" stroke="#1D1D1B" stroke-miterlimit="10" width="5.524" height="11.307"/>
				<rect x="277.388" y="302.248" fill="#91989C" stroke="#1D1D1B" stroke-miterlimit="10" width="3.18" height="18.622"/>
				<rect x="275.938" y="315.289" fill="#91989C" stroke="#1D1D1B" stroke-miterlimit="10" width="6.037" height="9.71"/>
				<g>
					
						<ellipse transform="matrix(0.7071 -0.7071 0.7071 0.7071 -115.6269 279.5942)" fill="#E9EDF0" stroke="#1D1D1B" stroke-width="0.862" stroke-miterlimit="10" cx="279.687" cy="279.371" rx="18.755" ry="18.755"/>
					<g>
						<path fill="#E9EDF0" stroke="#1D1D1B" stroke-width="0.862" stroke-miterlimit="10" d="M263.309,279.372
							c0-9.047,7.335-16.378,16.377-16.378c9.043,0,16.377,7.331,16.377,16.378c0,9.044-7.335,16.375-16.377,16.375
							C270.644,295.747,263.309,288.416,263.309,279.372z"/>
						
							<line fill="#E9EDF0" stroke="#1D1D1B" stroke-width="1.5" stroke-miterlimit="10" x1="267.737" y1="267.425" x2="291.636" y2="291.32"/>
						
							<line fill="#E9EDF0" stroke="#1D1D1B" stroke-width="1.5" stroke-miterlimit="10" x1="291.636" y1="267.425" x2="267.737" y2="291.32"/>
						<path fill="#1D1D1B" stroke="#1D1D1B" stroke-width="0.862" stroke-miterlimit="10" d="M275.682,279.372
							c0-2.212,1.792-4.007,4.005-4.007c2.211,0,4.005,1.795,4.005,4.007c0,2.211-1.794,4.004-4.005,4.004
							C277.474,283.376,275.682,281.583,275.682,279.372z"/>
						<circle fill="#E9EDF0" stroke="#1D1D1B" stroke-width="0.862" stroke-miterlimit="10" cx="185.202" cy="287.781" r="18.755"/>
						<path fill="#E9EDF0" stroke="#1D1D1B" stroke-width="0.862" stroke-miterlimit="10" d="M168.827,287.783
							c0-9.047,7.333-16.379,16.375-16.379c9.046,0,16.379,7.332,16.379,16.379c0,9.043-7.333,16.375-16.379,16.375
							C176.159,304.158,168.827,296.826,168.827,287.783z"/>
						<path fill="#1D1D1B" stroke="#1D1D1B" stroke-width="0.862" stroke-miterlimit="10" d="M181.197,287.783
							c0-2.213,1.794-4.008,4.005-4.008c2.215,0,4.007,1.795,4.007,4.008c0,2.211-1.792,4.004-4.007,4.004
							C182.991,291.787,181.197,289.994,181.197,287.783z"/>
					</g>
				</g>
				<polygon fill="#E9EDF0" stroke="#1D1D1B" stroke-width="0.862" stroke-linejoin="round" stroke-miterlimit="10" points="
					206.765,320.145 201.581,320.87 198.066,351.858 				"/>
				<polygon fill="#E9EDF0" stroke="#1D1D1B" stroke-width="0.862" stroke-linejoin="round" stroke-miterlimit="10" points="
					350.906,320.145 356.094,320.87 359.606,351.858 				"/>
				<g>
					<path fill="#E9EDF0" stroke="#1D1D1B" stroke-width="0.862" stroke-miterlimit="10" d="M306.228,609.203l-0.007,1.054
						c-0.567,0.522-1.193,1.048-1.856,1.55c-5.997,4.55-15.273,7.446-25.671,7.391c-10.391-0.055-19.641-3.052-25.586-7.665
						c-0.659-0.492-1.263-1.02-1.823-1.55l0.004-1.072L306.228,609.203z"/>
					<g>
						
							<rect x="277.445" y="582.894" transform="matrix(0.0049 -1 1 0.0049 -332.9644 886.1378)" fill="#E9EDF0" stroke="#1D1D1B" stroke-width="0.862" stroke-miterlimit="10" width="2.614" height="54.941"/>
					</g>
				</g>
				<path fill="#1D1D1B" stroke="#1D1D1B" stroke-width="0.862" stroke-miterlimit="10" d="M240.969,532.192v6.837
					c-1.885,0-3.418-1.533-3.418-3.417C237.551,533.725,239.083,532.192,240.969,532.192z"/>
				<path fill="#1D1D1B" stroke="#1D1D1B" stroke-width="0.862" stroke-miterlimit="10" d="M254.558,554.763h6.839
					c0,1.886-1.536,3.419-3.417,3.419C256.092,558.182,254.558,556.649,254.558,554.763z"/>
				<path fill="#1D1D1B" stroke="#1D1D1B" stroke-width="0.862" stroke-miterlimit="10" d="M295.579,554.763h6.839
					c0,1.886-1.536,3.419-3.419,3.419C297.113,558.182,295.579,556.649,295.579,554.763z"/>
				<path fill="#1D1D1B" stroke="#1D1D1B" stroke-width="0.862" stroke-miterlimit="10" d="M315.743,539.029v-6.837
					c1.887,0,3.423,1.533,3.423,3.418C319.166,537.495,317.63,539.029,315.743,539.029z"/>
				
					<rect x="310" y="547.266" transform="matrix(0.2168 -0.9762 0.9762 0.2168 -301.4698 741.681)" fill="#E9EDF0" stroke="#1D1D1B" stroke-width="0.862" stroke-miterlimit="10" width="2.973" height="22.906"/>
				<polygon fill="#E9EDF0" stroke="#1D1D1B" stroke-width="0.862" stroke-miterlimit="10" points="257.333,554.761 
					257.979,557.663 235.624,562.672 234.981,559.768 				"/>
				<g>
					<g>
						<g>
							<polygon fill="#E9EDF0" stroke="#1D1D1B" stroke-width="0.862" stroke-miterlimit="10" points="311.308,543.075 
								278.153,487.087 280.974,485.498 314.132,541.483 							"/>
							
								<rect x="310.757" y="541.483" fill="#E9EDF0" stroke="#1D1D1B" stroke-width="0.862" stroke-miterlimit="10" width="3.925" height="12.903"/>
							
								<rect x="319.717" y="535.374" transform="matrix(0.9463 -0.3234 0.3234 0.9463 -160.3949 133.4743)" fill="#E9EDF0" stroke="#1D1D1B" stroke-width="0.862" stroke-linejoin="round" stroke-miterlimit="10" width="3.389" height="27.948"/>
							
								<rect x="280.777" y="563.66" transform="matrix(0.9844 -0.1761 0.1761 0.9844 -94.7948 62.219)" fill="#E9EDF0" stroke="#1D1D1B" stroke-width="0.862" stroke-miterlimit="10" width="44.958" height="3.387"/>
						</g>
						<g>
							<polygon fill="#E9EDF0" stroke="#1D1D1B" stroke-width="0.862" stroke-miterlimit="10" points="244.663,543.51 
								279.35,487.087 276.527,485.498 241.836,541.919 							"/>
							
								<rect x="241.285" y="541.483" fill="#E9EDF0" stroke="#1D1D1B" stroke-width="0.862" stroke-miterlimit="10" width="3.923" height="12.903"/>
							
								<rect x="221.687" y="547.833" transform="matrix(0.2864 -0.9581 0.9581 0.2864 -358.3427 617.9106)" fill="#E9EDF0" stroke="#1D1D1B" stroke-width="0.862" stroke-linejoin="round" stroke-miterlimit="10" width="27.947" height="3.388"/>
							
								<rect x="252.55" y="542.874" transform="matrix(0.1761 -0.9844 0.9844 0.1761 -347.0394 716.0954)" fill="#E9EDF0" stroke="#1D1D1B" stroke-width="0.862" stroke-miterlimit="10" width="3.387" height="44.959"/>
						</g>
					</g>
					
						<rect x="274.689" y="492.669" fill="#E9EDF0" stroke="#1D1D1B" stroke-width="0.862" stroke-miterlimit="10" width="8.122" height="85.744"/>
					<g>
						
							<rect x="264.823" y="491.217" fill="#E9EDF0" stroke="#1D1D1B" stroke-width="0.862" stroke-miterlimit="10" width="3.943" height="77.231"/>
						
							<rect x="288.737" y="491.217" fill="#E9EDF0" stroke="#1D1D1B" stroke-width="0.862" stroke-miterlimit="10" width="3.946" height="77.231"/>
						
							<rect x="268.766" y="495.018" fill="#E9EDF0" stroke="#1D1D1B" stroke-width="0.862" stroke-miterlimit="10" width="19.97" height="3.007"/>
						
							<rect x="268.766" y="503.498" fill="#E9EDF0" stroke="#1D1D1B" stroke-width="0.862" stroke-miterlimit="10" width="19.97" height="3.008"/>
						
							<rect x="268.766" y="511.98" fill="#E9EDF0" stroke="#1D1D1B" stroke-width="0.862" stroke-miterlimit="10" width="19.97" height="3.007"/>
						
							<rect x="268.766" y="562.868" fill="#E9EDF0" stroke="#1D1D1B" stroke-width="0.862" stroke-miterlimit="10" width="19.97" height="3.007"/>
						
							<rect x="268.766" y="520.461" fill="#E9EDF0" stroke="#1D1D1B" stroke-width="0.862" stroke-miterlimit="10" width="19.97" height="3.007"/>
						
							<rect x="268.766" y="528.944" fill="#E9EDF0" stroke="#1D1D1B" stroke-width="0.862" stroke-miterlimit="10" width="19.97" height="3.007"/>
						
							<rect x="268.766" y="537.424" fill="#E9EDF0" stroke="#1D1D1B" stroke-width="0.862" stroke-miterlimit="10" width="19.97" height="3.008"/>
						
							<rect x="268.766" y="545.905" fill="#E9EDF0" stroke="#1D1D1B" stroke-width="0.862" stroke-miterlimit="10" width="19.97" height="3.007"/>
						
							<rect x="268.766" y="554.386" fill="#E9EDF0" stroke="#1D1D1B" stroke-width="0.862" stroke-miterlimit="10" width="19.97" height="3.008"/>
					</g>
				</g>
				
					<rect x="230.034" y="554.39" fill="#E9EDF0" stroke="#1D1D1B" stroke-width="0.862" stroke-miterlimit="10" width="5.945" height="10.22"/>
				
					<rect x="321.989" y="554.153" fill="#E9EDF0" stroke="#1D1D1B" stroke-width="0.862" stroke-miterlimit="10" width="5.949" height="10.219"/>
			</g>
			<path fill="#1D1D1B" stroke="#1D1D1B" stroke-width="0.862" stroke-miterlimit="10" d="M275.29,484.586
				c0,1.655,1.344,2.996,2.998,2.996c1.655,0,2.997-1.342,2.997-2.996c0-1.656-1.342-2.997-2.997-2.997
				C276.633,481.589,275.29,482.93,275.29,484.586z"/>
		</g>
		<polyline fill="none" stroke="#FFFFFF" stroke-width="0.7" stroke-miterlimit="10" points="91.255,455.784 31.242,455.784 
			31.242,620.133 91.255,620.133 		"/>
		<polyline fill="none" stroke="#FFFFFF" stroke-width="0.7" stroke-miterlimit="10" points="91.255,304.542 31.242,304.542 
			31.242,456.013 91.255,456.013 		"/>
		<g>
			<path fill="#FFFFFF" stroke="#1D1D1B" stroke-width="0.7273" stroke-miterlimit="10" d="M191.879,524.016
				c0,0-4.649-0.324-5.784-0.324c-1.137,0-5.543,1.107-6.002,1.568c-0.458,0.459-0.163,1.189-0.701,1.189
				c-0.542,0-1.027,0.54-1.027,2.162c0,1.622-0.434,9.84,0,10.272c0.43,0.432,0.837,0.513,0.163,1.189
				c-0.677,0.676-1.624,1.839-1.624,3.189c0,1.352-1.838,9.461-1.838,13.785s0.972,11.677,1.624,13.19
				c0.648,1.515-0.198,1.529,2.359,1.529s7.1-2.224,7.1-2.224l7.512-32.01v-13.838L191.879,524.016z"/>
			<path fill="#FFFFFF" stroke="#1D1D1B" stroke-width="0.7273" stroke-miterlimit="10" d="M195.76,519.276
				c-2.855,1.042-4.847,4.418-4.847,6.928c0,2.512,0,5.025,0,5.025s-1.04,0.779-1.646,2.599c-0.606,1.818-0.782,2.942-0.782,2.942
				s-2.076,0.348-3.985,2.252c0,0-1.558,2.165-1.902,4.505c-0.348,2.338-0.172,3.897-1.128,5.716
				c-0.952,1.819-1.472,4.417-1.906,6.149c-0.434,1.733-0.434,3.637-0.434,3.637l-1.124,1.126L180,572.715c0,0-1.04,1.732,0,2.772
				c1.04,1.04,0.52,3.204-0.086,3.809c-0.608,0.607-1.36,2.121-0.774,2.487c0.582,0.363,1.505,0.145,1.505,0.145
				s-0.073,0.997,0.436,1.165c0.513,0.172,1.095-0.217,1.095-0.217s0.22,0.413,0.56,0.413c0.339,0,0.972-0.584,0.972-0.584
				s0.522,0.11,0.802-0.169c0.278-0.28,1.675-2.113,1.675-2.113s-0.121,1.627,0.366,1.627c0.487,0,0.901-5.832,0.901-5.832
				l0.483,3.475c0,0,1.069,6.051,1.267,7.434c0.19,1.385,0.604,2.015,0.341,3.523c-0.269,1.507-0.707,3.232-0.707,5.394
				c0,2.163-0.17,8.309,0.095,9.768c0.271,1.456,0.075,5.733,0.075,6.171c0,0.437-0.39,0.558-0.22,1.481
				c0.17,0.924,1.168,3.644,0.827,5.151c-0.341,1.507-0.147,3.839,0,4.35c0.145,0.509,1.724,2.112,2.985,2.891
				c1.263,0.777,4.254,2.77,6.004,3.037c1.75,0.267,2.892,0,3.789-0.437c0.9-0.438,1.386-0.753,1.629-1.361
				c0.242-0.607,0.132-3.05-0.146-3.328c-0.278-0.28-2.954-1.518-3.694-2.261c-0.74-0.74-1.556-1.457-1.556-2.477
				c0-1.021-0.048-4.228,0.124-6.414c0.168-2.187,0.461-3.985,0.461-3.985s0.776,4.495,0.776,5.832c0,1.335,0.754,5.491,0.754,5.879
				c0,0.389,1.362,0.632,2.065,0.753c0.706,0.123,2.164-0.291,2.696-0.122c0.535,0.17,2.285,0.923,3.985,1.24
				c1.699,0.316,3.84,0.217,4.884-0.17c1.045-0.389,1.629-0.852,2.09-1.312c0.461-0.461,0.364-3.28,0-3.644
				c-0.362-0.365-4.009-1.41-4.737-1.726c-0.729-0.315-1.896-0.872-1.896-2.356c0-1.481,0.037-5.09-0.414-5.539
				c-0.448-0.449-0.412-0.753-0.412-1.214c0-0.461-0.397-6.029-0.207-6.713c0.19-0.685,0-2.738,0.379-2.738
				c0.383,0,0.877-1.675,0.533-2.016c-0.342-0.341-0.419-1.521-0.419-2.282c0-0.761,0.156-2.701,0.84-3.081
				c0.683-0.381,1.367-0.762,1.71-2.169c0.341-1.407,1.102-5.02,1.102-6.123c0-1.104,0.038-4.448,0.038-4.448
				s0.437,1.607,0.952,1.748c1.62,0.447,1.204-2.168,1.938-2.168c0.15,0,0.304,0.874-0.037,1.559
				c-0.344,0.686-1.523,2.397-0.723,2.626c0.798,0.229,1.159-0.152,1.664-0.152c0.505,0,0.884,0.152,1.417-0.039
				c0.533-0.189,0.912-0.76,1.252-1.521c0.344-0.761,0.271-5.326,0-6.505c-0.264-1.179-1.937-12.361-2.356-12.779
				c-0.419-0.418-0.798-0.57-0.986-1.369c-0.192-0.798-1.144-4.679-1.486-6.237c-0.341-1.559-0.912-6.96-1.635-7.34
				c-0.719-0.381-1.331-0.913-1.558-1.635c-0.231-0.725-2.246-3.195-3.386-3.881c-1.142-0.685-2.169-0.874-2.169-2.054
				c0-1.179-0.075-2.244-0.075-2.244s2.738-3.042,2.511-7.112c-0.229-4.07-2.094-5.437-3.994-6.807
				c-1.902-1.368-4.565-1.901-5.857-1.901C197.155,518.868,195.76,519.276,195.76,519.276z"/>
			<path fill="#1D1D1B" stroke="#1D1D1B" stroke-width="0.7273" stroke-miterlimit="10" d="M193.313,530.543
				c0.571,0.571,1.788,2.168,2.7,3.081s2.207,2.167,4.108,2.32c1.9,0.151,4.146-0.19,5.136-0.724
				c0.986-0.532,3.002-2.966,3.269-5.97c0.267-3.006-1.559-6.656-2.207-7.302c-0.644-0.646-1.787-1.293-1.787-1.293
				s-2.815-0.19-4.373,0.264c-1.558,0.458-3.119,1.408-4.45,2.739c-1.333,1.331-2.401,4.043-2.647,4.956
				C192.822,529.528,192.743,529.973,193.313,530.543z"/>
		</g>
	</g>
	<rect x="12.247" y="484.367" fill="#0B080F" width="42.235" height="100.633"/>
	<g>
		<path fill="#FFFFFF" d="M23.471,564.427c0.398-0.84,0.934-1.472,1.608-1.896c0.675-0.424,1.418-0.637,2.231-0.637
			c1.055,0,1.933,0.303,2.633,0.909c0.701,0.607,1.189,1.438,1.466,2.495c0.104-1.16,0.519-2.113,1.246-2.858
			c0.726-0.745,1.729-1.117,3.009-1.117c1.003,0,1.911,0.256,2.724,0.767c0.813,0.511,1.457,1.243,1.933,2.196
			s0.713,2.079,0.713,3.378c0,2.391-0.839,4.279-2.517,5.665l-1.764-1.845c0.588-0.589,1.017-1.169,1.284-1.741
			c0.269-0.572,0.402-1.204,0.402-1.897c0-0.935-0.264-1.685-0.792-2.248c-0.527-0.562-1.241-0.844-2.14-0.844
			c-1.003,0-1.721,0.264-2.153,0.792c-0.432,0.528-0.648,1.312-0.648,2.352v1.377l-2.361-0.39v-0.936
			c0-0.849-0.233-1.528-0.701-2.04c-0.467-0.511-1.115-0.767-1.945-0.767c-0.709,0-1.267,0.234-1.673,0.702s-0.61,1.091-0.61,1.871
			c0,0.676,0.125,1.291,0.376,1.845c0.251,0.554,0.636,1.108,1.155,1.663l-1.842,1.689c-1.487-1.576-2.231-3.404-2.231-5.482
			C22.875,566.268,23.074,565.268,23.471,564.427z"/>
		<path fill="#FFFFFF" d="M37.429,555.593c0.398-0.407,0.899-0.61,1.504-0.61c0.329,0,0.666,0.052,1.012,0.156
			c0.346,0.104,0.787,0.277,1.323,0.52l3.84,1.689v2.027l-4.462-1.065c-0.397,0.589-0.977,0.884-1.738,0.884
			c-0.588,0-1.081-0.199-1.479-0.598s-0.597-0.892-0.597-1.481C36.832,556.507,37.031,556,37.429,555.593z"/>
		<path fill="#FFFFFF" d="M23.523,544.862c0.433-0.857,1.021-1.511,1.764-1.962c0.744-0.45,1.574-0.676,2.491-0.676
			c0.986,0,1.933,0.212,2.841,0.637c0.908,0.425,1.916,1.13,3.022,2.118s2.568,2.434,4.384,4.339v-7.483l2.62,0.364v10.888h-2.438
			c-2.248-2.217-3.913-3.807-4.994-4.769c-1.081-0.961-2.006-1.646-2.776-2.053c-0.77-0.407-1.57-0.61-2.4-0.61
			c-0.795,0-1.418,0.229-1.868,0.688s-0.675,1.07-0.675,1.832c0,0.675,0.143,1.269,0.428,1.78c0.286,0.511,0.757,1.044,1.414,1.598
			l-1.608,2.027c-1.902-1.472-2.854-3.361-2.854-5.665C22.875,546.737,23.091,545.719,23.523,544.862z"/>
		<path fill="#FFFFFF" d="M23.471,531.766c0.398-0.84,0.934-1.472,1.608-1.896c0.675-0.424,1.418-0.637,2.231-0.637
			c1.055,0,1.933,0.303,2.633,0.909c0.701,0.607,1.189,1.438,1.466,2.495c0.104-1.16,0.519-2.113,1.246-2.858
			c0.726-0.745,1.729-1.117,3.009-1.117c1.003,0,1.911,0.256,2.724,0.767c0.813,0.511,1.457,1.243,1.933,2.196
			s0.713,2.079,0.713,3.378c0,2.391-0.839,4.279-2.517,5.665l-1.764-1.845c0.588-0.589,1.017-1.169,1.284-1.741
			c0.269-0.572,0.402-1.204,0.402-1.897c0-0.935-0.264-1.685-0.792-2.248c-0.527-0.562-1.241-0.844-2.14-0.844
			c-1.003,0-1.721,0.264-2.153,0.792c-0.432,0.528-0.648,1.312-0.648,2.352v1.377l-2.361-0.39v-0.936
			c0-0.849-0.233-1.528-0.701-2.04c-0.467-0.511-1.115-0.767-1.945-0.767c-0.709,0-1.267,0.234-1.673,0.702s-0.61,1.091-0.61,1.871
			c0,0.676,0.125,1.291,0.376,1.845c0.251,0.554,0.636,1.108,1.155,1.663l-1.842,1.689c-1.487-1.576-2.231-3.404-2.231-5.482
			C22.875,533.606,23.074,532.606,23.471,531.766z"/>
		<path fill="#FFFFFF" d="M27.661,501.819c0.752-0.658,1.769-0.987,3.048-0.987h9.936v3.326h-9.417c-1.47,0-2.205,0.502-2.205,1.507
			c0,0.537,0.169,1,0.506,1.39c0.337,0.39,0.861,0.792,1.57,1.208h9.547v3.326h-9.417c-1.47,0-2.205,0.503-2.205,1.507
			c0,0.555,0.169,1.026,0.506,1.416c0.337,0.39,0.861,0.792,1.57,1.208h9.547v3.326H26.922v-2.884l1.79-0.26
			c-1.453-1.039-2.179-2.364-2.179-3.976c0-0.796,0.203-1.485,0.609-2.066c0.407-0.58,0.973-1,1.699-1.26
			c-0.743-0.554-1.314-1.165-1.712-1.832s-0.597-1.433-0.597-2.3C26.533,503.361,26.909,502.478,27.661,501.819z"/>
	</g>
	<rect x="11" y="320.825" fill="#0B080F" width="42.235" height="100.633"/>
	<g>
		<path fill="#FFFFFF" d="M22.523,400.816c0.433-0.857,1.021-1.511,1.764-1.962c0.744-0.45,1.574-0.676,2.491-0.676
			c0.986,0,1.933,0.212,2.841,0.637c0.908,0.425,1.916,1.13,3.022,2.118s2.568,2.434,4.384,4.339v-7.483l2.62,0.364v10.888h-2.438
			c-2.248-2.217-3.913-3.807-4.994-4.769c-1.081-0.961-2.006-1.646-2.776-2.053c-0.77-0.407-1.57-0.61-2.4-0.61
			c-0.795,0-1.418,0.229-1.868,0.688s-0.675,1.07-0.675,1.832c0,0.675,0.143,1.269,0.428,1.78c0.286,0.511,0.757,1.044,1.414,1.598
			l-1.608,2.027c-1.902-1.472-2.854-3.361-2.854-5.665C21.875,402.691,22.091,401.674,22.523,400.816z"/>
		<path fill="#FFFFFF" d="M36.429,392.138c0.398-0.407,0.899-0.61,1.504-0.61c0.329,0,0.666,0.052,1.012,0.156
			c0.346,0.104,0.787,0.277,1.323,0.52l3.84,1.689v2.027l-4.462-1.065c-0.397,0.589-0.977,0.884-1.738,0.884
			c-0.588,0-1.081-0.199-1.479-0.598s-0.597-0.892-0.597-1.481C35.832,393.052,36.031,392.545,36.429,392.138z"/>
		<path fill="#FFFFFF" d="M34.95,376.716c0.952,0,1.812,0.269,2.582,0.806c0.77,0.537,1.379,1.295,1.829,2.273
			c0.449,0.979,0.674,2.118,0.674,3.417c0,1.282-0.221,2.399-0.662,3.352c-0.441,0.953-1.042,1.689-1.803,2.209
			c-0.761,0.52-1.617,0.779-2.568,0.779c-2.006,0-3.477-1.108-4.411-3.326c-0.951,1.75-2.326,2.625-4.125,2.625
			c-0.917,0-1.725-0.255-2.425-0.767c-0.701-0.511-1.236-1.204-1.609-2.079c-0.372-0.875-0.558-1.832-0.558-2.871
			c0-1.057,0.173-2.018,0.519-2.884c0.346-0.866,0.856-1.555,1.531-2.066c0.674-0.511,1.479-0.767,2.413-0.767
			c1.643,0,2.958,0.961,3.943,2.884C31.353,377.912,32.909,376.716,34.95,376.716z M24.806,384.966
			c0.398,0.442,0.969,0.663,1.712,0.663c0.692,0,1.241-0.208,1.647-0.624c0.407-0.416,0.774-1.083,1.103-2l0.181-0.494
			c-0.415-0.675-0.852-1.156-1.31-1.442c-0.458-0.286-1.007-0.429-1.647-0.429c-0.709,0-1.267,0.217-1.673,0.649
			c-0.406,0.433-0.61,1.048-0.61,1.845C24.209,383.914,24.409,384.525,24.806,384.966z M36.844,380.9
			c-0.484-0.537-1.116-0.806-1.894-0.806c-0.795,0-1.422,0.234-1.881,0.702c-0.458,0.468-0.903,1.299-1.336,2.495l-0.285,0.806
			c0.744,1.403,1.894,2.104,3.45,2.104c0.83,0,1.483-0.277,1.958-0.832c0.476-0.554,0.714-1.299,0.714-2.234
			C37.57,382.182,37.328,381.437,36.844,380.9z"/>
		<path fill="#FFFFFF" d="M22.471,366.751c0.398-0.84,0.934-1.472,1.608-1.896c0.675-0.424,1.418-0.637,2.231-0.637
			c1.055,0,1.933,0.303,2.633,0.909c0.701,0.607,1.189,1.438,1.466,2.495c0.104-1.16,0.519-2.113,1.246-2.858
			c0.726-0.745,1.729-1.117,3.009-1.117c1.003,0,1.911,0.256,2.724,0.767c0.813,0.511,1.457,1.243,1.933,2.196
			s0.713,2.079,0.713,3.378c0,2.391-0.839,4.279-2.517,5.665l-1.764-1.845c0.588-0.589,1.017-1.169,1.284-1.741
			c0.269-0.572,0.402-1.204,0.402-1.897c0-0.935-0.264-1.685-0.792-2.248c-0.527-0.562-1.241-0.844-2.14-0.844
			c-1.003,0-1.721,0.264-2.153,0.792c-0.432,0.528-0.648,1.312-0.648,2.352v1.377l-2.361-0.39v-0.936
			c0-0.849-0.233-1.528-0.701-2.04c-0.467-0.511-1.115-0.767-1.945-0.767c-0.709,0-1.267,0.234-1.673,0.702s-0.61,1.091-0.61,1.871
			c0,0.676,0.125,1.291,0.376,1.845c0.251,0.554,0.636,1.108,1.155,1.663l-1.842,1.689c-1.487-1.576-2.231-3.404-2.231-5.482
			C21.875,368.592,22.074,367.592,22.471,366.751z"/>
		<path fill="#FFFFFF" d="M26.661,336.805c0.752-0.658,1.769-0.987,3.048-0.987h9.936v3.326h-9.417c-1.47,0-2.205,0.502-2.205,1.507
			c0,0.537,0.169,1,0.506,1.39c0.337,0.39,0.861,0.792,1.57,1.208h9.547v3.326h-9.417c-1.47,0-2.205,0.503-2.205,1.507
			c0,0.555,0.169,1.026,0.506,1.416c0.337,0.39,0.861,0.792,1.57,1.208h9.547v3.326H25.922v-2.884l1.79-0.26
			c-1.453-1.039-2.179-2.364-2.179-3.976c0-0.796,0.203-1.485,0.609-2.066c0.407-0.58,0.973-1,1.699-1.26
			c-0.743-0.554-1.314-1.165-1.712-1.832s-0.597-1.433-0.597-2.3C25.533,338.347,25.909,337.463,26.661,336.805z"/>
	</g>
</g>
<style type="text/css">
#g-eagle-Zeichenfl_che_1-img rect, #g-eagle-Zeichenfl_che_1-img circle, #g-eagle-Zeichenfl_che_1-img path, #g-eagle-Zeichenfl_che_1-img line, #g-eagle-Zeichenfl_che_1-img polyline { vector-effect: non-scaling-stroke; }
</style>
</svg>

